<svg width="39" height="40" viewBox="0 0 39 40" fill="none" xmlns="http://www.w3.org/2000/svg">
    <path d="M37.1979 28.2985C38.2469 25.791 38.7713 22.9651 38.7713 19.821C38.7713 15.8408 37.9284 12.3781 36.2425 9.43283C34.5566 6.44777 32.1964 4.13929 29.1617 2.50746C26.1648 0.835809 22.643 0 18.5969 0H16.9283V5.61192H18.5969C21.4441 5.61192 23.9357 6.20896 26.0711 7.40297C28.2064 8.597 29.8735 10.2687 31.0724 12.4179C32.2715 14.5275 32.8708 16.9951 32.8708 19.821C32.8708 22.0897 32.4961 24.1394 31.7468 25.9701C31.035 27.801 30.0048 29.3334 28.656 30.5672C27.3448 31.801 25.8088 32.7563 24.0479 33.4328C22.2873 34.1094 20.3765 34.4478 18.316 34.4478H16.9283V40H18.316C21.2383 40 23.9356 39.5424 26.4082 38.6269C28.8808 37.7115 31.035 36.3781 32.8708 34.6267C34.7439 32.8757 36.1864 30.7661 37.1979 28.2985Z" fill="black"/>
    <path d="M9.97163 40C7.39031 40 5.60463 39.4865 4.61453 38.4596C3.62444 37.4328 3.12939 35.8426 3.12939 33.6894V26.3849C3.12939 25.1263 2.89955 24.1822 2.43987 23.5528C1.98019 22.8903 1.16689 22.4928 0 22.3601V17.6896C1.30833 17.5239 2.15699 17.0765 2.54595 16.3479C2.9349 15.5859 3.12939 14.4597 3.12939 12.9689V6.36026C3.12939 4.20703 3.62444 2.61697 4.61453 1.59006C5.60463 0.530033 7.39031 0 9.97163 0H14.198V5.5399H13.0187H11.8394C10.9553 5.5399 10.3542 5.73866 10.036 6.1362C9.7531 6.50058 9.61165 7.11339 9.61165 7.97468V15.354C9.61165 16.381 9.38181 17.3085 8.92212 18.1366C8.4978 18.9317 7.82596 19.5611 6.90659 20.0248C7.82596 20.4886 8.4978 21.1346 8.92212 21.9628C9.38181 22.7579 9.61165 23.6687 9.61165 24.6957V32.0749C9.61165 32.9031 9.7531 33.516 10.036 33.9136C10.3542 34.2779 10.9553 34.4601 11.8394 34.4601H14.198V40H9.97163Z" fill="#41BD9B"/>
</svg>